<svg height="512" viewBox="0 0 512 512" width="512" xmlns="http://www.w3.org/2000/svg"><g id="filled_outline" data-name="filled outline"><path d="m112 406.379-40-40-16-72 13.191-85.744a21.53 21.53 0 0 1 21.28-18.256 21.529 21.529 0 0 1 21.529 21.53v66.47l56 72z" fill="#fdc9a6"/><path d="m208 368-.443-.985c-10.741-23.869-34.381-39.7-60.554-39.558q-1.092.006-2.185.044l-33.33-40.931a22.226 22.226 0 0 0 -17.233-8.191 22.224 22.224 0 0 0 -19.51 32.866l30.073 55.134z" fill="#f6bb92"/><circle cx="256" cy="166.379" fill="#6ee7f5" r="112"/><path d="m368 166.38a111.591 111.591 0 1 1 -11.96-50.41 111.471 111.471 0 0 1 11.96 50.41z" fill="#6ee7f5"/><g fill="#02a437"><path d="m200 222.379 8-24-8-16 16-16h24l24 16 24 8-16 32-40 24z"/><path d="m256 86.38-24 8-8 16-32 8 8 24-16 16-30.24-37.8a112.068 112.068 0 0 1 86.77-65.13z"/><path d="m368 166.38a111.471 111.471 0 0 1 -9.18 44.46l-14.82-44.46-16 16-24-16-8-32 8-16 24 8 16-8 12.04-2.41a111.532 111.532 0 0 1 11.96 50.41z"/><path d="m341.79 94.38h-45.79l-8-16v-19.35a111.918 111.918 0 0 1 53.79 35.35z"/></g><path d="m232 486.379v-81.5a73.625 73.625 0 0 0 -21.565-52.062l-3.794-3.794a73.628 73.628 0 0 0 -54.641-21.523l-33.33-40.93a22.226 22.226 0 0 0 -17.233-8.191 22.224 22.224 0 0 0 -19.51 32.866l30.073 55.134v40l40 32v48z" fill="#fdc9a6"/><path d="m400 406.379 40-40 16-72-13.191-85.744a21.53 21.53 0 0 0 -21.28-18.256 21.529 21.529 0 0 0 -21.529 21.53v66.47l-56 72z" fill="#fdc9a6"/><path d="m304 368 .443-.985c10.741-23.869 34.381-39.7 60.554-39.558q1.092.006 2.185.044l33.33-40.931a22.226 22.226 0 0 1 17.233-8.191 22.224 22.224 0 0 1 19.51 32.866l-30.073 55.134z" fill="#f6bb92"/><path d="m280 486.379v-81.5a73.625 73.625 0 0 1 21.565-52.062l3.794-3.794a73.628 73.628 0 0 1 54.641-21.523l33.33-40.931a22.226 22.226 0 0 1 17.233-8.191 22.224 22.224 0 0 1 19.51 32.866l-30.073 55.135v40l-40 32v48z" fill="#fdc9a6"/><path d="m90.471 182.38a29.372 29.372 0 0 0 -29.187 25.038l-13.191 85.745a8.009 8.009 0 0 0 .1 2.952l16 72a8.014 8.014 0 0 0 2.153 3.922l40 40 .02.019c.1.1.2.184.305.275s.206.191.314.278l.02.018 37 29.6v44.153a8 8 0 0 0 8 8h80a8 8 0 0 0 8-8v-81.5a81.094 81.094 0 0 0 -23.907-57.72l-3.795-3.794a81.926 81.926 0 0 0 -56.525-23.9l-30.9-37.947a30.361 30.361 0 0 0 -4.878-4.774v-64.836a29.563 29.563 0 0 0 -29.529-29.529zm55.329 150.173a8 8 0 0 0 6.483 2.943 65.9 65.9 0 0 1 48.7 19.182l3.794 3.794a65.191 65.191 0 0 1 19.223 46.405v73.5h-64v-40a8 8 0 0 0 -3-6.247l-39.648-31.719-38.052-38.041-15.164-68.259 12.964-84.259a13.529 13.529 0 0 1 26.9 2.057v58.591c-.849-.071-1.7-.119-2.563-.119a30.224 30.224 0 0 0 -26.534 44.7l26.597 48.75a8 8 0 0 0 14.047-7.662l-26.597-48.755a14.224 14.224 0 0 1 23.517-15.792z"/><path d="m376 166.38a119.261 119.261 0 0 0 -12.508-53.3 7.919 7.919 0 0 0 -.654-1.313 120.455 120.455 0 0 0 -14.37-21.79 8.043 8.043 0 0 0 -1.2-1.42 119.956 119.956 0 1 0 18.576 126.112 7.988 7.988 0 0 0 .548-1.25 119.329 119.329 0 0 0 9.608-47.039zm-24.41-2.53a8 8 0 0 0 -13.247-3.127l-11.363 11.363-15.969-10.647-6.532-26.128 3.574-7.148 17.417 5.807a8.011 8.011 0 0 0 6.108-.435l15.041-7.52 4.808-.962a104.058 104.058 0 0 1 7.009 59.334zm-55.59-93.466a104.181 104.181 0 0 1 26.378 16h-21.434l-4.944-9.893zm-59.978-6.071 8.7 17.394-15.252 5.083a8 8 0 0 0 -4.625 4.012l-6.355 12.709-28.43 7.108a8 8 0 0 0 -5.65 10.291l6.437 19.309-6.184 6.183-21.5-26.87a104.351 104.351 0 0 1 72.859-55.219zm19.978 206.067a104.01 104.01 0 0 1 -99.654-133.762l21.407 26.759a8 8 0 0 0 5.805 2.99c.147.009.3.013.442.013a8 8 0 0 0 5.657-2.343l16-16a8 8 0 0 0 1.933-8.187l-5.269-15.8 23.619-5.905a8 8 0 0 0 5.215-4.183l6.519-13.036 20.856-6.956a8 8 0 0 0 4.625-11.17l-10.187-20.373c1.008-.029 2.018-.047 3.032-.047a103.939 103.939 0 0 1 24 2.8v13.2a7.994 7.994 0 0 0 .845 3.578l8 16a8 8 0 0 0 7.155 4.422h41.92q3 3.827 5.636 7.93l-1.125.225a7.989 7.989 0 0 0 -2.009.69l-13.036 6.517-20.856-6.952a8 8 0 0 0 -9.685 4.012l-8 16a7.99 7.99 0 0 0 -.606 5.518l8 32a8 8 0 0 0 3.323 4.716l24 16a8 8 0 0 0 10.095-1l6.847-6.848 9.724 29.173a104.134 104.134 0 0 1 -94.228 60.019z"/><path d="m290.53 182.79-22.984-7.661-23.108-15.4a8.005 8.005 0 0 0 -4.438-1.349h-24a8 8 0 0 0 -5.657 2.343l-16 16a8 8 0 0 0 -1.5 9.235l6.517 13.036-6.95 20.856a8 8 0 0 0 2.79 8.93l32 24a8 8 0 0 0 8.916.46l40-24a8 8 0 0 0 3.039-3.282l16-32a8 8 0 0 0 -4.625-11.168zm-24.643 33.929-33.387 20.033-23.084-17.313 6.177-18.529a8 8 0 0 0 -.435-6.108l-5.421-10.842 9.579-9.58h18.265l21.984 14.656a8.043 8.043 0 0 0 1.908.934l15.25 5.083z"/><path d="m295.907 347.157a81.094 81.094 0 0 0 -23.907 57.72v81.5a8 8 0 0 0 8 8h80a8 8 0 0 0 8-8v-44.152l37-29.6.02-.018c.108-.087.209-.184.314-.278s.208-.18.305-.275l.02-.019 40-40a8.014 8.014 0 0 0 2.153-3.922l16-72a8.009 8.009 0 0 0 .1-2.952l-13.191-85.745a29.53 29.53 0 0 0 -58.721 4.493v64.836a30.361 30.361 0 0 0 -4.873 4.774l-30.9 37.947a81.941 81.941 0 0 0 -56.526 23.9zm15.108 7.521a65.958 65.958 0 0 1 48.705-19.178 8.086 8.086 0 0 0 6.483-2.943l33.33-40.931a14.224 14.224 0 0 1 23.517 15.792l-26.594 48.755a8 8 0 0 0 14.047 7.662l26.597-48.759a30.224 30.224 0 0 0 -26.534-44.7c-.861 0-1.714.048-2.563.119v-58.59a13.529 13.529 0 0 1 26.9-2.057l12.963 84.259-15.166 68.263-38.045 38.044-39.655 31.719a8 8 0 0 0 -3 6.247v40h-64v-73.5a65.191 65.191 0 0 1 19.222-46.405z"/></g></svg>