<?xml version="1.0"?>
<svg xmlns="http://www.w3.org/2000/svg" xmlns:xlink="http://www.w3.org/1999/xlink" xmlns:svgjs="http://svgjs.com/svgjs" version="1.1" width="512" height="512" x="0" y="0" viewBox="0 0 512.025 512.025" style="enable-background:new 0 0 512 512" xml:space="preserve"><g><g xmlns="http://www.w3.org/2000/svg"><path d="m41.064 223.427c1.099.245 2.196.363 3.277.363 6.872 0 13.069-4.753 14.626-11.74 7.566-33.944 23.855-65.535 47.106-91.357 20.668-22.953 46.455-40.793 75.205-52.178l-11.437 21.961c-3.827 7.348-.973 16.406 6.375 20.232 2.213 1.153 4.582 1.7 6.916 1.699 5.414 0 10.643-2.94 13.316-8.074l28.183-54.115c3.822-7.338.98-16.385-6.351-20.22l-54.075-28.286c-7.342-3.84-16.405-1.002-20.244 6.339-3.84 7.341-1.001 16.404 6.339 20.244l22.001 11.508c-33.874 13.039-64.256 33.868-88.521 60.815-26.701 29.653-45.406 65.929-54.094 104.905-1.802 8.086 3.292 16.102 11.378 17.904z" fill="#ffffff" data-original="#000000" style=""/><path d="m470.102 288.656c-8.09-1.804-16.102 3.291-17.905 11.376-7.568 33.94-23.858 65.527-47.108 91.345-20.675 22.959-46.473 40.803-75.235 52.186l11.464-22.012c3.827-7.348.973-16.406-6.375-20.232-7.35-3.828-16.406-.972-20.232 6.375l-28.184 54.115c-3.822 7.338-.98 16.385 6.352 20.22l54.076 28.286c2.22 1.161 4.597 1.711 6.939 1.711 5.404 0 10.626-2.93 13.305-8.05 3.839-7.341 1.001-16.404-6.34-20.244l-21.956-11.484c33.857-13.039 64.224-33.86 88.479-60.794 26.699-29.648 45.406-65.919 54.097-104.891 1.802-8.087-3.291-16.104-11.377-17.907z" fill="#ffffff" data-original="#000000" style=""/><path d="m211.937 452.879c-33.901-7.616-65.465-23.962-91.279-47.272-22.96-20.733-40.819-46.59-52.227-75.407l21.886 11.447c7.34 3.839 16.404 1 20.244-6.339 3.84-7.341 1.001-16.404-6.339-20.244l-54.076-28.285c-3.529-1.846-7.647-2.214-11.447-1.019-3.8 1.193-6.969 3.849-8.809 7.382l-28.185 54.114c-3.827 7.348-.973 16.406 6.375 20.233 2.213 1.153 4.582 1.699 6.916 1.699 5.414 0 10.643-2.94 13.316-8.074l11.414-21.917c13.061 33.921 33.893 64.356 60.825 88.676 29.639 26.763 65.881 45.532 104.81 54.277 1.107.249 2.212.368 3.302.368 6.862 0 13.054-4.74 14.621-11.716 1.816-8.083-3.264-16.107-11.347-17.923z" fill="#ffffff" data-original="#000000" style=""/><path d="m503.944 143.699c-7.35-3.827-16.406-.972-20.232 6.375l-12.1 23.233c-13.046-34.092-33.935-64.681-60.976-89.104-29.64-26.769-65.884-45.541-104.816-54.29-8.081-1.814-16.106 3.264-17.923 11.347-1.816 8.083 3.264 16.107 11.347 17.924 33.904 7.618 65.47 23.968 91.284 47.283 23.089 20.853 41.024 46.886 52.421 75.904l-23.296-12.185c-7.341-3.84-16.405-1.002-20.243 6.339-3.84 7.341-1.002 16.404 6.339 20.244l55.428 28.993c7.256 3.796 16.483.882 20.256-6.363l28.888-55.468c3.825-7.347.971-16.405-6.377-20.232z" fill="#ffffff" data-original="#000000" style=""/><path d="m355.392 218.013c-2.693-4.555-7.588-7.353-12.879-7.364l-70.455-.149v-84.951c0-6.861-4.654-12.847-11.304-14.538-6.655-1.69-13.598 1.346-16.875 7.373l-87.514 160.979c-2.526 4.647-2.418 10.281.284 14.828 2.703 4.547 7.6 7.335 12.889 7.336l69.966.025v84.925c0 6.854 4.645 12.836 11.285 14.533 1.237.316 2.484.469 3.717.469 5.383-.001 10.482-2.911 13.158-7.803l87.977-160.828c2.54-4.643 2.445-10.28-.249-14.835zm-85.887 109.787v-41.243c0-8.282-6.712-14.997-14.994-15l-59.743-.021 47.291-86.99v40.922c0 8.272 6.696 14.983 14.968 15l60.182.128z" fill="#ffffff" data-original="#000000" style=""/></g></g></svg>
