<?xml version="1.0"?>
<svg xmlns="http://www.w3.org/2000/svg" xmlns:xlink="http://www.w3.org/1999/xlink" xmlns:svgjs="http://svgjs.com/svgjs" version="1.1" width="512" height="512" x="0" y="0" viewBox="0 0 512 512" style="enable-background:new 0 0 512 512" xml:space="preserve"><g><path xmlns="http://www.w3.org/2000/svg" d="m161.157 70.798c2.091 3.625 6.71 4.785 10.245 2.745 3.587-2.071 4.816-6.658 2.745-10.245l-17.937-31.069c-2.071-3.588-6.659-4.817-10.245-2.745-3.587 2.071-4.816 6.658-2.745 10.245zm-81.853 141.773h-35.875c-4.142 0-7.5 3.358-7.5 7.5s3.358 7.5 7.5 7.5h35.875c4.142 0 7.5-3.358 7.5-7.5s-3.358-7.5-7.5-7.5zm176.696-161.696c4.142 0 7.5-3.358 7.5-7.5v-35.875c0-4.142-3.358-7.5-7.5-7.5s-7.5 3.358-7.5 7.5v35.875c0 4.142 3.358 7.5 7.5 7.5zm84.598 22.668c3.527 2.036 8.153.881 10.245-2.745l17.938-31.069c2.071-3.587.842-8.174-2.745-10.245-3.587-2.073-8.174-.842-10.245 2.745l-17.938 31.069c-2.072 3.587-.843 8.174 2.745 10.245zm127.973 139.028h-35.875c-4.142 0-7.5 3.358-7.5 7.5s3.358 7.5 7.5 7.5h35.875c4.142 0 7.5-3.358 7.5-7.5s-3.358-7.5-7.5-7.5zm-21.984-102.536c-2.071-3.587-6.657-4.816-10.245-2.745l-31.069 17.938c-3.587 2.071-4.816 6.658-2.745 10.245 2.092 3.624 6.713 4.79 10.245 2.745l31.069-17.938c3.587-2.071 4.816-6.657 2.745-10.245zm-190.586-31.377c-.002 0-.001 0-.004 0-18.2 0-35.919 3.39-52.659 10.075-3.847 1.536-5.72 5.9-4.184 9.747s5.897 5.72 9.747 4.184c14.964-5.976 30.809-9.005 47.096-9.005h.004c69.85.001 126.677 56.77 126.677 126.546 0 40.833-19.902 79.381-53.239 103.116-21.211 15.102-34.605 38.569-36.759 63.817h-29.18v-66.94c.9-.559 1.757-1.214 2.538-1.995l43.072-43.057c14.714-14.709 22.818-34.268 22.818-55.073 0-20.806-8.104-40.364-22.818-55.074l-43.071-43.056c-5.536-5.535-14.542-5.535-20.077 0l-43.071 43.057c-14.714 14.709-22.818 34.268-22.818 55.074 0 20.805 8.104 40.364 22.818 55.073l43.071 43.057c.781.781 1.638 1.437 2.538 1.995v66.94h-29.171c-2.105-25.399-15.272-48.707-36.133-63.367-33.82-23.768-53.96-62.584-53.875-103.833.086-41.843 20.793-80.874 55.391-104.409 3.425-2.33 4.313-6.995 1.983-10.419-2.329-3.424-6.994-4.313-10.419-1.983-38.697 26.323-61.858 69.979-61.955 116.78-.096 46.141 22.428 89.557 60.25 116.137 17.288 12.15 28.17 31.521 29.832 52.625-7.426 3.051-12.672 10.351-12.672 18.859v12.889c0 4.886 1.732 9.374 4.61 12.889-2.878 3.515-4.61 8.003-4.61 12.889v12.889c0 11.243 9.152 20.389 20.402 20.389h7.447v16.432c0 8.876 7.221 16.097 16.097 16.097h40.644c8.876 0 16.097-7.221 16.097-16.097v-16.432h7.447c11.25 0 20.401-9.146 20.401-20.389v-12.889c0-4.886-1.732-9.374-4.61-12.889 2.878-3.516 4.61-8.003 4.61-12.889v-12.889c0-8.505-5.242-15.803-12.663-18.856 1.711-20.985 12.848-40.538 30.535-53.131 37.281-26.543 59.539-69.659 59.539-115.335.001-78.051-63.554-141.548-141.676-141.549zm-42.506 185.878c-11.88-11.876-18.422-27.667-18.422-44.465s6.542-32.589 18.422-44.465l42.505-42.491 42.505 42.49c11.879 11.876 18.422 27.667 18.422 44.465 0 16.797-6.543 32.589-18.422 44.465l-35.005 34.994v-30.968l17.315-17.31c2.93-2.929 2.93-7.677.002-10.606-2.929-2.93-7.677-2.931-10.606-.002l-6.711 6.709v-8.93l17.315-17.31c2.93-2.929 2.93-7.677.002-10.606-2.929-2.93-7.677-2.93-10.606-.002l-6.711 6.708v-17.234c0-4.142-3.358-7.5-7.5-7.5s-7.5 3.358-7.5 7.5v27.281l-6.711-6.709c-2.929-2.928-7.678-2.928-10.606.002-2.928 2.929-2.928 7.678.002 10.606l17.315 17.31v8.931l-6.711-6.709c-2.929-2.928-7.678-2.928-10.606.002-2.928 2.929-2.928 7.678.002 10.606l17.315 17.31v20.921zm63.924 231.367c0 .605-.492 1.097-1.097 1.097h-40.644c-.605 0-1.097-.492-1.097-1.097v-16.432h42.838zm27.849-75.488c0 2.972-2.423 5.389-5.401 5.389h-13.867c-4.142 0-7.5 3.358-7.5 7.5s3.358 7.5 7.5 7.5h13.866c2.979 0 5.401 2.417 5.401 5.389v12.889c0 2.972-2.423 5.389-5.401 5.389h-87.732c-2.979 0-5.402-2.417-5.402-5.389v-12.889c0-2.971 2.423-5.389 5.402-5.389h43.866c4.142 0 7.5-3.358 7.5-7.5s-3.358-7.5-7.5-7.5h-43.866c-2.979 0-5.402-2.417-5.402-5.389v-12.889c0-2.972 2.423-5.389 5.402-5.389h87.732c2.979 0 5.401 2.417 5.401 5.389v12.889zm-198.541-295.187-31.069-17.938c-3.587-2.072-8.174-.842-10.245 2.745s-.842 8.174 2.745 10.245l31.069 17.938c3.525 2.04 8.152.88 10.245-2.745 2.071-3.588.842-8.175-2.745-10.245z" fill="#ffffff" data-original="#000000" style=""/></g></svg>
